<svg width="100" height="100" viewBox="0 0 100 100" fill="none" xmlns="http://www.w3.org/2000/svg">
<path d="M52.9167 46.6667L46.875 40.7292C46.1111 39.9653 45.1555 39.5833 44.0083 39.5833C42.8611 39.5833 41.8722 40 41.0417 40.8333C40.2778 41.5972 39.8958 42.5694 39.8958 43.75C39.8958 44.9306 40.2778 45.9028 41.0417 46.6667L50 55.625C50.8333 56.4583 51.8055 56.875 52.9167 56.875C54.0278 56.875 55 56.4583 55.8333 55.625L73.5417 37.9167C74.375 37.0833 74.775 36.1111 74.7417 35C74.7083 33.8889 74.3083 32.9167 73.5417 32.0833C72.7083 31.25 71.7194 30.8153 70.575 30.7792C69.4305 30.7431 68.4403 31.1431 67.6042 31.9792L52.9167 46.6667ZM33.3333 75C31.0417 75 29.0792 74.1833 27.4458 72.55C25.8125 70.9167 24.9972 68.9556 25 66.6667V16.6667C25 14.375 25.8167 12.4125 27.45 10.7792C29.0833 9.14583 31.0444 8.33056 33.3333 8.33333H83.3333C85.625 8.33333 87.5875 9.15 89.2208 10.7833C90.8542 12.4167 91.6694 14.3778 91.6667 16.6667V66.6667C91.6667 68.9583 90.85 70.9208 89.2167 72.5542C87.5833 74.1875 85.6222 75.0028 83.3333 75H33.3333ZM33.3333 66.6667H83.3333V16.6667H33.3333V66.6667ZM16.6667 91.6667C14.375 91.6667 12.4125 90.85 10.7792 89.2167C9.14582 87.5833 8.33054 85.6222 8.33332 83.3333V29.1667C8.33332 27.9861 8.73332 26.9958 9.53332 26.1958C10.3333 25.3958 11.3222 24.9972 12.5 25C13.6805 25 14.6708 25.4 15.4708 26.2C16.2708 27 16.6694 27.9889 16.6667 29.1667V83.3333H70.8333C72.0139 83.3333 73.0042 83.7333 73.8042 84.5333C74.6042 85.3333 75.0028 86.3222 75 87.5C75 88.6806 74.6 89.6708 73.8 90.4708C73 91.2708 72.0111 91.6694 70.8333 91.6667H16.6667Z" fill="#0DC160"/>
</svg>
