<svg width="100" height="100" viewBox="0 0 100 100" fill="none" xmlns="http://www.w3.org/2000/svg">
<path d="M50 83.3333C40.6944 83.3333 32.8125 80.1042 26.3542 73.6458C19.8958 67.1875 16.6667 59.3056 16.6667 50C16.6667 40.6944 19.8958 32.8125 26.3542 26.3542C32.8125 19.8958 40.6944 16.6667 50 16.6667C59.3056 16.6667 67.1875 19.8958 73.6458 26.3542C80.1042 32.8125 83.3333 40.6944 83.3333 50C83.3333 59.3056 80.1042 67.1875 73.6458 73.6458C67.1875 80.1042 59.3056 83.3333 50 83.3333ZM50 75C56.9444 75 62.8472 72.5694 67.7083 67.7083C72.5694 62.8472 75 56.9444 75 50C75 48.8194 74.9125 47.6556 74.7375 46.5083C74.5625 45.3611 74.3028 44.2333 73.9583 43.125C72.9167 43.3333 71.875 43.4903 70.8333 43.5958C69.7917 43.7014 68.75 43.7528 67.7083 43.75C63.3333 43.75 59.1667 42.9167 55.2083 41.25C51.25 39.5833 47.7083 37.1528 44.5833 33.9583C42.6389 37.9167 39.9653 41.3542 36.5625 44.2708C33.1597 47.1875 29.3056 49.3056 25 50.625C25.2083 57.4306 27.725 63.1944 32.55 67.9167C37.375 72.6389 43.1917 75 50 75ZM26.6667 41.0417C29.7222 39.4444 32.0486 37.5875 33.6458 35.4708C35.2431 33.3542 36.8056 30.8361 38.3333 27.9167C35.6944 29.3056 33.3681 31.1292 31.3542 33.3875C29.3403 35.6458 27.7778 38.1972 26.6667 41.0417ZM39.5833 58.3333C38.4028 58.3333 37.4125 57.9347 36.6125 57.1375C35.8125 56.3403 35.4139 55.35 35.4167 54.1667C35.4167 52.9861 35.8167 51.9958 36.6167 51.1958C37.4167 50.3958 38.4056 49.9972 39.5833 50C40.7639 50 41.7542 50.4 42.5542 51.2C43.3542 52 43.7528 52.9889 43.75 54.1667C43.75 55.3472 43.35 56.3375 42.55 57.1375C41.75 57.9375 40.7611 58.3361 39.5833 58.3333ZM67.7083 35.4167H68.9583C69.375 35.4167 69.7917 35.3819 70.2083 35.3125C67.9167 32.1875 65.018 29.6875 61.5125 27.8125C58.0069 25.9375 54.1694 25 50 25H48.75C48.3333 25 47.9514 25.0347 47.6042 25.1042C50.3125 28.2292 53.1764 30.7292 56.1958 32.6042C59.2153 34.4792 63.0528 35.4167 67.7083 35.4167ZM60.4167 58.3333C59.2361 58.3333 58.2458 57.9347 57.4458 57.1375C56.6458 56.3403 56.2472 55.35 56.25 54.1667C56.25 52.9861 56.65 51.9958 57.45 51.1958C58.25 50.3958 59.2389 49.9972 60.4167 50C61.5972 50 62.5875 50.4 63.3875 51.2C64.1875 52 64.5861 52.9889 64.5833 54.1667C64.5833 55.3472 64.1833 56.3375 63.3833 57.1375C62.5833 57.9375 61.5944 58.3361 60.4167 58.3333ZM4.16666 25V12.5C4.16666 10.2083 4.98333 8.24583 6.61666 6.6125C8.25 4.97917 10.2111 4.16389 12.5 4.16667H25V12.5H12.5V25H4.16666ZM25 95.8333H12.5C10.2083 95.8333 8.24583 95.0167 6.6125 93.3833C4.97916 91.75 4.16389 89.7889 4.16666 87.5V75H12.5V87.5H25V95.8333ZM75 95.8333V87.5H87.5V75H95.8333V87.5C95.8333 89.7917 95.0167 91.7542 93.3833 93.3875C91.75 95.0208 89.7889 95.8361 87.5 95.8333H75ZM87.5 25V12.5H75V4.16667H87.5C89.7917 4.16667 91.7542 4.98333 93.3875 6.61667C95.0208 8.25 95.8361 10.2111 95.8333 12.5V25H87.5Z" fill="#9747FF"/>
</svg>
