<svg width="100" height="100" viewBox="0 0 100 100" fill="none" xmlns="http://www.w3.org/2000/svg">
<path d="M38.6458 79.1667H61.3542L59.2708 70.8333H40.7291L38.6458 79.1667ZM37.5 62.5H62.5C68.2639 62.5 73.1778 60.4681 77.2417 56.4042C81.3055 52.3403 83.3361 47.4278 83.3333 41.6667C83.3333 35.9028 81.3014 30.9889 77.2375 26.925C73.1736 22.8611 68.2611 20.8306 62.5 20.8333H37.5C31.7361 20.8333 26.8222 22.8653 22.7583 26.9292C18.6944 30.9931 16.6639 35.9056 16.6666 41.6667C16.6666 47.4306 18.6986 52.3444 22.7625 56.4083C26.8264 60.4722 31.7389 62.5028 37.5 62.5ZM50 50C47.7083 50 45.7458 49.1833 44.1125 47.55C42.4791 45.9167 41.6639 43.9556 41.6666 41.6667C41.6666 39.375 42.4833 37.4125 44.1167 35.7792C45.75 34.1458 47.7111 33.3306 50 33.3333C52.2916 33.3333 54.2542 34.15 55.8875 35.7833C57.5208 37.4167 58.3361 39.3778 58.3333 41.6667C58.3333 43.9583 57.5166 45.9208 55.8833 47.5542C54.25 49.1875 52.2889 50.0028 50 50ZM27.0833 37.5C28.2639 37.5 29.2541 37.1 30.0541 36.3C30.8541 35.5 31.2528 34.5111 31.25 33.3333C31.25 32.1528 30.85 31.1625 30.05 30.3625C29.25 29.5625 28.2611 29.1639 27.0833 29.1667C25.9028 29.1667 24.9125 29.5667 24.1125 30.3667C23.3125 31.1667 22.9139 32.1556 22.9166 33.3333C22.9166 34.5139 23.3166 35.5042 24.1166 36.3042C24.9166 37.1042 25.9055 37.5028 27.0833 37.5ZM16.6666 87.5V79.1667H30.1041L32.2916 70.4167C25.4166 69.2361 19.7055 65.9542 15.1583 60.5708C10.6111 55.1875 8.33609 48.8861 8.33331 41.6667C8.33331 33.5417 11.1639 26.6486 16.825 20.9875C22.4861 15.3264 29.3778 12.4972 37.5 12.5H62.5C70.625 12.5 77.518 15.3306 83.1791 20.9917C88.8403 26.6528 91.6694 33.5444 91.6667 41.6667C91.6667 48.8889 89.3917 55.1917 84.8417 60.575C80.2916 65.9583 74.5805 69.2389 67.7083 70.4167L69.8958 79.1667H83.3333V87.5H16.6666ZM50 58.3333C54.5833 58.3333 58.5069 56.7014 61.7708 53.4375C65.0347 50.1736 66.6667 46.25 66.6667 41.6667C66.6667 37.0833 65.0347 33.1597 61.7708 29.8958C58.5069 26.6319 54.5833 25 50 25C45.4166 25 41.493 26.6319 38.2291 29.8958C34.9653 33.1597 33.3333 37.0833 33.3333 41.6667C33.3333 46.25 34.9653 50.1736 38.2291 53.4375C41.493 56.7014 45.4166 58.3333 50 58.3333Z" fill="#9747FF"/>
</svg>
