<svg width="100" height="100" viewBox="0 0 100 100" fill="none" xmlns="http://www.w3.org/2000/svg">
<path d="M83.3333 8.33333H33.3333C28.75 8.33333 25 12.0833 25 16.6667V66.6667C25 68.8768 25.878 70.9964 27.4408 72.5592C29.0036 74.122 31.1232 75 33.3333 75H83.3333C87.9583 75 91.6667 71.2917 91.6667 66.6667V16.6667C91.6667 14.4565 90.7887 12.3369 89.2259 10.7741C87.6631 9.21131 85.5435 8.33333 83.3333 8.33333ZM83.3333 66.6667H33.3333V16.6667H83.3333V66.6667ZM16.6666 25V83.3333H75V91.6667H16.6666C14.4565 91.6667 12.3369 90.7887 10.7741 89.2259C9.21129 87.6631 8.33331 85.5435 8.33331 83.3333V25H16.6666ZM40.7083 53.5L52.5 41.6667L40.7083 29.7917L46.5416 23.9583L58.3333 35.8333L70.1667 24.0417L76 29.875L64.1666 41.6667L75.9583 53.5L70.125 59.3333L58.3333 47.5L46.5416 59.3333L40.7083 53.5Z" fill="#FF0A0A"/>
</svg>
